inDegrees=no
num_controls=7
num_derivatives=13
num_iterations=148
num_multipliers=7
num_parameters=0
num_slacks=7
num_states=26
objective=0.546482
objective_accelerations=0.040943
objective_balance=0.003632
objective_effort=0.039431
objective_height=0.453074
objective_ligament=0.009401
solver_duration=1730.001908
status=Solve_Succeeded
success=true
DataType=double
version=3
OpenSimVersion=4.5
endheader
time	/jointset/ground_pelvis/pelvis_tilt/value	/jointset/ground_pelvis/pelvis_tx/value	/jointset/ground_pelvis/pelvis_ty/value	/jointset/hip_r/hip_flexion_r/value	/jointset/hip_r/hip_adduction_r/value	/jointset/hip_r/hip_rotation_r/value	/jointset/back/lumbar_extension/value	/jointset/patellofemoral_r/patellar_flexion_r/value	/jointset/knee_r/knee_flexion_r/value	/jointset/knee_r/knee_adduction_r/value	/jointset/knee_r/knee_rotation_r/value	/jointset/ankle_r/ankle_angle_r/value	/jointset/subtalar_r/subtalar_angle_r/value	/jointset/ground_pelvis/pelvis_tilt/speed	/jointset/ground_pelvis/pelvis_tx/speed	/jointset/ground_pelvis/pelvis_ty/speed	/jointset/hip_r/hip_flexion_r/speed	/jointset/hip_r/hip_adduction_r/speed	/jointset/hip_r/hip_rotation_r/speed	/jointset/back/lumbar_extension/speed	/jointset/patellofemoral_r/patellar_flexion_r/speed	/jointset/knee_r/knee_flexion_r/speed	/jointset/knee_r/knee_adduction_r/speed	/jointset/knee_r/knee_rotation_r/speed	/jointset/ankle_r/ankle_angle_r/speed	/jointset/subtalar_r/subtalar_angle_r/speed	/forceset/tau_hip_flexion_r	/forceset/tau_hip_adduction_r	/forceset/tau_hip_rotation_r	/forceset/tau_knee_flexion_r	/forceset/tau_ankle_angle_r	/forceset/tau_subtalar_angle_r	/forceset/tau_lumbar_extension	lambda_cid13_p0	lambda_cid14_p0	lambda_cid14_p1	lambda_cid14_p2	lambda_cid14_p3	lambda_cid14_p4	lambda_cid14_p5	/jointset/ground_pelvis/pelvis_tilt/accel	/jointset/ground_pelvis/pelvis_tx/accel	/jointset/ground_pelvis/pelvis_ty/accel	/jointset/hip_r/hip_flexion_r/accel	/jointset/hip_r/hip_adduction_r/accel	/jointset/hip_r/hip_rotation_r/accel	/jointset/back/lumbar_extension/accel	/jointset/patellofemoral_r/patellar_flexion_r/accel	/jointset/knee_r/knee_flexion_r/accel	/jointset/knee_r/knee_adduction_r/accel	/jointset/knee_r/knee_rotation_r/accel	/jointset/ankle_r/ankle_angle_r/accel	/jointset/subtalar_r/subtalar_angle_r/accel	gamma_cid13_p0	gamma_cid14_p0	gamma_cid14_p1	gamma_cid14_p2	gamma_cid14_p3	gamma_cid14_p4	gamma_cid14_p5
1	-0.3597392223944756	-0.0314821127772602	0.7126148376619164	1.400301812796614	-0.2313096756998931	-0.06426422701671825	-0.4363298032958204	1.161099965619898	1.161099965620147	-0.02894435312780558	0.1745281355050771	0.3095714590324158	0.06760796400217896	-0.0008652233164627816	0.003091518428857437	0.0135875448320151	-0.03721396955012325	0.001372018044608421	-0.009570528211194473	-0.0001043194916652243	-0.04697397122676483	-0.04697397122676538	0.001514923027560705	-5.465794323258721e-06	-0.01030215271691646	-0.0010729552877662	-0.314237460566498	0.009288514916404389	0.01249619178972301	-0.4030663558252783	0.03793329721326222	0.004708242836776399	0.3154646080573602	-2.972443446610699	-35.9896076321074	-3.157369299173142	-0.2923947579701399	15.5618595202749	-782.0264767619663	58.18278698477437	1.598233851826555	0.1640686415574663	1.417871742172009	-5.050069559687256	0.07609131271263722	-0.7123061881262004	-0.01861014217992348	-4.367922870322476	-4.367922870322479	0.3869654860390165	0.00600737765114622	-1.076699233921137	-0.2132202409367796	4.260743273762549e-10	1.011221131482428e-09	7.197377212433683e-09	6.165861729117564e-09	-8.70612263162265e-10	-1.403963083170076e-09	6.110416797963384e-09
1.01	-0.3596687375327232	-0.03144303105872009	0.7128213854625574	1.399678349888559	-0.2312921024738269	-0.06439493192506751	-0.4363309531384299	1.160412219671286	1.160412219671361	-0.0289094848120511	0.1745280257133002	0.3094145936131255	0.06758662842500995	0.01495498576379841	0.004724815744771697	0.02771306162604941	-0.0874542383036534	0.002142430023267508	-0.01656504952612648	-0.0001227397111165129	-0.09056004362863646	-0.09056004362863788	0.005461354610667854	-1.672815263110447e-05	-0.02107275509915522	-0.003194930111648446	-0.3139329723048582	0.009276797959892698	0.01250125409624367	-0.4027720185036356	0.03802007751857196	0.00468837668359708	0.3152173550882599	-2.999571138477153	-35.93848513385607	-3.154695486884694	-0.2955058569602936	15.51509990110461	-781.6348487897492	58.15495040452539	1.572833235872422	0.1629583034551505	1.408548012865115	-5.007349223555519	0.07748892358808225	-0.6922146465358404	0.00697843604435755	-4.351673331600616	-4.351673331600749	0.3988759815002075	-0.004725625345416313	-1.077514586506571	-0.211797963674705	6.800853004600002e-10	2.197522463518996e-09	1.429477564378246e-08	1.173328747983793e-08	-2.696505085529849e-09	-2.907965984568093e-09	1.190259079554457e-08
1.02	-0.3594402668202193	-0.03138761676165149	0.7131689197041079	1.398553215554896	-0.2312668305713456	-0.06459541995523657	-0.436332199903627	1.159289068217359	1.159289068217261	-0.02883507338305736	0.1745277967813876	0.3091499674007863	0.06754405072748988	0.03073194683392108	0.006358034134557902	0.04178483301392718	-0.1375482546719682	0.002911753327748368	-0.02352715257542476	-0.0001237040156823641	-0.1340550722897527	-0.1340550722897552	0.009423545675921038	-2.929382188555066e-05	-0.03185431132664707	-0.005321379357961079	-0.3136284840432156	0.009265081003381531	0.01250631640277227	-0.4024776811819925	0.03810685782388146	0.004668510530418246	0.3149701021191622	-3.044154639412295	-35.89679881600203	-3.150731561246386	-0.3021835143021159	15.48671975606236	-781.3889733561878	58.14298459204105	1.589584249798852	0.1640528563318537	1.4071226609407	-5.020819082644172	0.07587357787699066	-0.7058225349994516	-0.01511895920266144	-4.349714122171404	-4.349714122171436	0.3901173824682268	0.005746715461828311	-1.078890002971758	-0.2141151254228599	1.162407278249819e-09	4.033151585401651e-10	2.041739587461894e-08	1.661777863248294e-08	1.598700070008943e-09	-7.771081806332448e-09	1.617295878412513e-08
1.03	-0.3590545424962385	-0.03131565077732454	0.7136569654585903	1.396927715516088	-0.2312338905954681	-0.06486535753121267	-0.4363318379677055	1.157731174280724	1.157731174280399	-0.02872084836581972	0.1745274383455955	0.3087776734477356	0.06748022348980852	0.04637499578098488	0.008057217301665011	0.05582158562633423	-0.1875425254978445	0.003674080392039872	-0.03045365580326906	0.0003532841332745066	-0.1775335860748216	-0.1775335860748258	0.0134357927183026	-4.260324618956079e-05	-0.04258618539294634	-0.007441149656971189	-0.3142953615802836	0.009341324207872419	0.01252432766314424	-0.4019840567904596	0.03811914838332399	0.004662555565503632	0.3157913734998133	-3.106518669698865	-35.90804713370257	-3.146318496024659	-0.3131315920189472	15.21633861864612	-781.8620256123243	58.12034823659457	1.545977850196096	0.1761604502053337	1.401539159579019	-4.987346292590012	0.07609281578713266	-0.6850587636583876	0.1026866417603699	-4.348400994663567	-4.34840099466381	0.4089322860723716	-0.004896280806119434	-1.067593401874265	-0.2104633445569058	1.647058960169293e-09	-1.421305499877615e-09	2.653006938912367e-08	2.149530106473942e-08	5.956365408995794e-09	-1.266847429054954e-08	2.042779813996077e-08
